<svg width="21" height="15" viewBox="0 0 21 15" fill="none" xmlns="http://www.w3.org/2000/svg">
<path fill-rule="evenodd" clip-rule="evenodd" d="M10.9334 0C6.3778 0 2.48735 3.11 0.911133 7.5C2.48735 11.89 6.3778 15 10.9334 15C15.4889 15 19.3794 11.89 20.9556 7.5C19.3794 3.11 15.4889 0 10.9334 0ZM10.9334 12.5C8.41869 12.5 6.3778 10.26 6.3778 7.5C6.3778 4.74 8.41869 2.5 10.9334 2.5C13.448 2.5 15.4889 4.74 15.4889 7.5C15.4889 10.26 13.448 12.5 10.9334 12.5ZM10.9334 4.5C9.42091 4.5 8.20002 5.84 8.20002 7.5C8.20002 9.16 9.42091 10.5 10.9334 10.5C12.4458 10.5 13.6667 9.16 13.6667 7.5C13.6667 5.84 12.4458 4.5 10.9334 4.5Z" fill="white"/>
</svg>
