<svg width="17" height="17" viewBox="0 0 17 17" fill="none" xmlns="http://www.w3.org/2000/svg">
<path fill-rule="evenodd" clip-rule="evenodd" d="M8.28209 10.5882C8.7189 10.5882 9.14592 10.464 9.50912 10.2313C9.87232 9.99866 10.1554 9.66793 10.3225 9.28098C10.4897 8.89403 10.5335 8.46824 10.4482 8.05746C10.363 7.64667 10.1527 7.26934 9.8438 6.97319C9.53492 6.67703 9.14137 6.47534 8.71295 6.39363C8.28452 6.31192 7.84045 6.35386 7.43688 6.51414C7.03331 6.67442 6.6884 6.94584 6.44572 7.29409C6.20304 7.64233 6.0735 8.05176 6.0735 8.47059C6.07525 9.03171 6.30849 9.56937 6.7223 9.96614C7.13611 10.3629 7.69687 10.5866 8.28209 10.5882ZM3.75447 3.81176C4.50705 3.1518 5.41712 2.67914 6.40477 2.43529L7.28823 0H9.49682L10.3802 2.43529C11.3495 2.72249 12.2501 3.19025 13.0305 3.81176L15.6809 3.28235L16.7852 5.18824L15.0183 7.09412C15.1099 7.54738 15.1469 8.00923 15.1287 8.47059C15.1287 8.89412 15.0183 9.42353 15.0183 9.84706L16.7852 11.7529L15.6809 13.6588L13.0305 13.1294C12.278 13.7894 11.3679 14.262 10.3802 14.5059L9.49682 16.9412H7.28823L6.40477 14.5059C5.43551 14.2187 4.53487 13.7509 3.75447 13.1294L1.10417 13.6588L-0.00012207 11.7529L1.76676 9.84706C1.67516 9.3938 1.6381 8.93195 1.65632 8.47059C1.65632 8.04706 1.76676 7.51765 1.76676 7.09412L-0.00012207 5.18824L1.10417 3.28235L3.75447 3.81176Z" fill="white"/>
</svg>
