<svg width="22" height="24" viewBox="0 0 22 24" fill="none" xmlns="http://www.w3.org/2000/svg">
<path fill-rule="evenodd" clip-rule="evenodd" d="M10.9334 5C6.3778 5 2.48735 8.11 0.911133 12.5C2.48735 16.89 6.3778 20 10.9334 20C15.4889 20 19.3794 16.89 20.9556 12.5C19.3794 8.11 15.4889 5 10.9334 5ZM10.9334 17.5C8.41869 17.5 6.3778 15.26 6.3778 12.5C6.3778 9.74 8.41869 7.5 10.9334 7.5C13.448 7.5 15.4889 9.74 15.4889 12.5C15.4889 15.26 13.448 17.5 10.9334 17.5ZM10.9334 9.5C9.42091 9.5 8.20002 10.84 8.20002 12.5C8.20002 14.16 9.42091 15.5 10.9334 15.5C12.4458 15.5 13.6667 14.16 13.6667 12.5C13.6667 10.84 12.4458 9.5 10.9334 9.5Z" fill="white"/>
</svg>
