<svg width="21" height="21" viewBox="0 0 21 21" fill="none" xmlns="http://www.w3.org/2000/svg">
<path d="M10.7767 10.7772C9.40949 10.7772 8.2391 10.2904 7.26549 9.31676C6.29189 8.34316 5.80509 7.17276 5.80509 5.80558C5.80509 4.43839 6.29189 3.26799 7.26549 2.29439C8.2391 1.32079 9.40949 0.833984 10.7767 0.833984C12.1439 0.833984 13.3143 1.32079 14.2879 2.29439C15.2615 3.26799 15.7483 4.43839 15.7483 5.80558C15.7483 7.17276 15.2615 8.34316 14.2879 9.31676C13.3143 10.2904 12.1439 10.7772 10.7767 10.7772ZM0.833496 20.7203V17.2402C0.833496 16.5359 1.01475 15.8886 1.37726 15.2982C1.73978 14.7078 2.2214 14.2573 2.82213 13.9466C4.10646 13.3044 5.4115 12.8228 6.73726 12.5017C8.06302 12.1806 9.40949 12.0201 10.7767 12.0201C12.1439 12.0201 13.4903 12.1806 14.8161 12.5017C16.1419 12.8228 17.4469 13.3044 18.7312 13.9466C19.332 14.2573 19.8136 14.7078 20.1761 15.2982C20.5386 15.8886 20.7199 16.5359 20.7199 17.2402V20.7203H0.833496ZM3.31929 18.2346H18.2341V17.2402C18.2341 17.0124 18.1771 16.8052 18.0632 16.6188C17.9492 16.4324 17.7991 16.2873 17.6126 16.1838C16.494 15.6245 15.365 15.205 14.2257 14.9253C13.0864 14.6457 11.9367 14.5059 10.7767 14.5059C9.61664 14.5059 8.46696 14.6457 7.32764 14.9253C6.18831 15.205 5.05935 15.6245 3.94074 16.1838C3.75431 16.2873 3.60412 16.4324 3.49019 16.6188C3.37626 16.8052 3.31929 17.0124 3.31929 17.2402V18.2346ZM10.7767 8.29137C11.4603 8.29137 12.0455 8.04797 12.5323 7.56117C13.0191 7.07437 13.2625 6.48917 13.2625 5.80558C13.2625 5.12198 13.0191 4.53678 12.5323 4.04998C12.0455 3.56318 11.4603 3.31978 10.7767 3.31978C10.0931 3.31978 9.50789 3.56318 9.02108 4.04998C8.53428 4.53678 8.29088 5.12198 8.29088 5.80558C8.29088 6.48917 8.53428 7.07437 9.02108 7.56117C9.50789 8.04797 10.0931 8.29137 10.7767 8.29137Z" fill="#F7F6FA"/>
</svg>
