<svg width="118" height="118" viewBox="0 0 118 118" fill="none" xmlns="http://www.w3.org/2000/svg">
<path d="M59 68.8334C56.2846 68.8334 54.0833 66.6322 54.0833 63.9168V49.1668C54.0833 46.4514 56.2846 44.2501 59 44.2501C61.7154 44.2501 63.9166 46.4514 63.9166 49.1668V63.9168C63.9166 66.6322 61.7154 68.8334 59 68.8334Z" fill="#0D0D0D"/>
<path d="M51.625 81.1251C51.625 77.052 54.9269 73.7501 59 73.7501C63.0731 73.7501 66.375 77.052 66.375 81.1251C66.375 85.1982 63.0731 88.5001 59 88.5001C54.9269 88.5001 51.625 85.1982 51.625 81.1251Z" fill="#0D0D0D"/>
<path d="M50.2983 15.8101C53.9849 8.8055 64.015 8.80545 67.7017 15.8101L108.725 93.7536C112.171 100.302 107.423 108.167 100.023 108.167H17.9771C10.5774 108.167 5.82903 100.302 9.27541 93.7536L50.2983 15.8101ZM100.023 98.3334L59 20.39L17.9771 98.3335L100.023 98.3334Z" fill="#0D0D0D"/>
</svg>
